<svg width="23" height="22" viewBox="0 0 23 22" fill="none" xmlns="http://www.w3.org/2000/svg">
<path d="M7.675 21.7L7.225 18.225C7.14167 18.1917 7.05833 18.15 6.975 18.1C6.89167 18.05 6.80833 18 6.725 17.95L3.5 19.325L0 13.225L2.775 11.125C2.775 11.075 2.775 11.0292 2.775 10.9875C2.775 10.9458 2.775 10.9 2.775 10.85C2.775 10.8 2.775 10.7542 2.775 10.7125C2.775 10.6708 2.775 10.625 2.775 10.575L0 8.475L3.5 2.425L6.775 3.775C6.85833 3.725 6.93333 3.67917 7 3.6375C7.06667 3.59583 7.14167 3.55833 7.225 3.525L7.675 0H14.625L15.075 3.525C15.1583 3.55833 15.2417 3.59583 15.325 3.6375C15.4083 3.67917 15.4917 3.725 15.575 3.775L18.8 2.425L22.3 8.475L19.5 10.575C19.5 10.625 19.5 10.6708 19.5 10.7125C19.5 10.7542 19.5 10.8 19.5 10.85C19.5 10.9 19.4958 10.9458 19.4875 10.9875C19.4792 11.0292 19.475 11.075 19.475 11.125L22.275 13.225L18.75 19.325L15.525 17.95C15.4417 18 15.3667 18.05 15.3 18.1C15.2333 18.15 15.1583 18.1917 15.075 18.225L14.625 21.7H7.675ZM10.425 18.55H11.825L12.2 15.95C12.7333 15.8167 13.2417 15.6167 13.725 15.35C14.2083 15.0833 14.6333 14.7333 15 14.3L17.45 15.325L18.125 14.075L16.05 12.5C16.1333 12.2333 16.2 11.9625 16.25 11.6875C16.3 11.4125 16.325 11.1333 16.325 10.85C16.325 10.5667 16.3 10.2875 16.25 10.0125C16.2 9.7375 16.1333 9.46667 16.05 9.2L18.175 7.625L17.45 6.375L15.025 7.425C14.6583 6.99167 14.2333 6.63333 13.75 6.35C13.2667 6.06667 12.75 5.86667 12.2 5.75L11.875 3.15H10.425L10.125 5.725C9.55833 5.84167 9.02917 6.04167 8.5375 6.325C8.04583 6.60833 7.60833 6.96667 7.225 7.4L4.825 6.375L4.125 7.625L6.175 9.15C6.09167 9.43333 6.025 9.7125 5.975 9.9875C5.925 10.2625 5.9 10.55 5.9 10.85C5.9 11.1333 5.925 11.4167 5.975 11.7C6.025 11.9833 6.09167 12.2667 6.175 12.55L4.125 14.075L4.825 15.325L7.225 14.3C7.60833 14.7167 8.05 15.0667 8.55 15.35C9.05 15.6333 9.575 15.8417 10.125 15.975L10.425 18.55ZM11.125 14.35C12.0917 14.35 12.9167 14.0083 13.6 13.325C14.2833 12.6417 14.625 11.8167 14.625 10.85C14.625 9.88333 14.2833 9.05833 13.6 8.375C12.9167 7.69167 12.0917 7.35 11.125 7.35C10.1583 7.35 9.33333 7.69167 8.65 8.375C7.96667 9.05833 7.625 9.88333 7.625 10.85C7.625 11.8167 7.96667 12.6417 8.65 13.325C9.33333 14.0083 10.1583 14.35 11.125 14.35Z" fill="#1D1B16"/>
</svg>
