<svg width="20" height="24" viewBox="0 0 20 24" fill="none" xmlns="http://www.w3.org/2000/svg">
<path d="M6.075 2.775V0H13.625V2.775H6.075ZM8.475 14.475H11.225V8.4H8.475V14.475ZM9.85 23.3C8.48333 23.3 7.20417 23.0417 6.0125 22.525C4.82083 22.0083 3.77917 21.3083 2.8875 20.425C1.99583 19.5417 1.29167 18.5042 0.775 17.3125C0.258333 16.1208 0 14.8417 0 13.475C0 12.1083 0.258333 10.8292 0.775 9.6375C1.29167 8.44583 1.99583 7.40417 2.8875 6.5125C3.77917 5.62083 4.82083 4.91667 6.0125 4.4C7.20417 3.88333 8.48333 3.625 9.85 3.625C10.9167 3.625 11.9583 3.79167 12.975 4.125C13.9917 4.45833 14.925 4.95 15.775 5.6L17.475 3.9L19.45 5.875L17.75 7.575C18.4 8.425 18.8875 9.35417 19.2125 10.3625C19.5375 11.3708 19.7 12.4083 19.7 13.475C19.7 14.8417 19.4417 16.1208 18.925 17.3125C18.4083 18.5042 17.7042 19.5417 16.8125 20.425C15.9208 21.3083 14.8792 22.0083 13.6875 22.525C12.4958 23.0417 11.2167 23.3 9.85 23.3ZM9.85 20.15C11.7167 20.15 13.3 19.5042 14.6 18.2125C15.9 16.9208 16.55 15.3417 16.55 13.475C16.55 11.6083 15.9 10.025 14.6 8.725C13.3 7.425 11.7167 6.775 9.85 6.775C7.98333 6.775 6.4 7.425 5.1 8.725C3.8 10.025 3.15 11.6083 3.15 13.475C3.15 15.3417 3.8 16.9208 5.1 18.2125C6.4 19.5042 7.98333 20.15 9.85 20.15Z" fill="#1D1B16"/>
</svg>
